<svg width="0" height="0" class="hidden">
  <symbol fill="none" xmlns="http://www.w3.org/2000/svg" viewBox="0 0 324 65" id="logo-white">
    <g clip-path="url(#clip0_19_52)">
      <path d="M254.903 54.0888L255.484 63.6067C253.974 64.4192 249.91 64.7674 247.935 64.7674C237.716 64.7674 230.4 58.3834 230.168 47.1245H240.968C241.432 51.8834 245.148 54.7852 249.561 54.7852C250.606 54.6692 253.974 54.3209 254.903 54.0888ZM108.348 64.0709H119.148V4.06201H108.348V64.0709ZM203.226 26.1156C208.335 26.1156 212.632 28.6692 214.606 32.3834L223.664 27.2763C220.181 20.312 212.4 15.7852 203.226 15.7852C189.174 15.7852 178.49 26.4638 178.49 40.5084C178.49 54.5531 189.29 64.9995 203.342 64.9995C212.052 64.9995 219.484 61.0531 223.664 54.7852L214.606 49.2138C212.284 52.5799 208.103 54.6692 203.342 54.6692C195.213 54.6692 189.174 48.5174 189.174 40.3924C189.174 32.2674 195.097 26.1156 203.226 26.1156ZM102.194 38.3031C102.194 25.6513 92.2064 15.7852 79.4323 15.7852C65.729 15.7852 55.0452 26.4638 55.0452 40.1602C55.0452 54.3209 65.9613 64.9995 79.6645 64.9995C89.4193 64.9995 97.4322 61.1692 100.916 54.7852L92.3226 49.2138C90.1161 52.9281 85.2387 55.2495 79.8968 55.2495C72.2323 55.2495 67.0064 50.6067 65.8452 42.9459H101.845C102.077 41.437 102.194 39.5799 102.194 38.3031ZM66.1935 34.7049C67.8193 28.5531 72.3484 24.6067 78.8516 24.6067C85.3548 24.6067 90.2322 28.7852 90.8129 34.7049H66.1935ZM172.452 38.3031C172.452 25.6513 162.464 15.7852 149.69 15.7852C135.987 15.7852 125.303 26.4638 125.303 40.1602C125.303 54.3209 136.219 64.9995 149.923 64.9995C159.677 64.9995 167.69 61.1692 171.174 54.7852L162.581 49.2138C160.374 52.9281 155.497 55.2495 150.155 55.2495C142.49 55.2495 137.264 50.6067 136.103 42.9459H172.103C172.335 41.437 172.452 39.5799 172.452 38.3031ZM136.335 34.7049C137.961 28.5531 142.49 24.6067 148.994 24.6067C155.497 24.6067 160.374 28.7852 160.955 34.7049H136.335ZM306.813 38.3031C306.813 25.6513 296.826 15.7852 284.052 15.7852C270.348 15.7852 259.664 26.4638 259.664 40.1602C259.664 54.3209 270.581 64.9995 284.284 64.9995C294.039 64.9995 302.052 61.1692 305.535 54.7852L296.942 49.2138C294.735 52.9281 289.858 55.2495 284.516 55.2495C276.852 55.2495 271.626 50.6067 270.464 42.9459H306.464C306.697 41.437 306.813 39.5799 306.813 38.3031ZM270.813 34.7049C272.439 28.5531 276.968 24.6067 283.471 24.6067C289.974 24.6067 294.852 28.7852 295.432 34.7049H270.813ZM312.968 64.0709H323.768V4.06201H312.968V64.0709ZM35.7677 52.9281C33.2129 54.5531 30.0774 55.3656 26.4774 55.3656C22.6452 55.3656 19.2774 54.3209 16.3742 52.2317C13.471 50.1424 11.6129 47.3567 10.6839 43.6424L0 45.2674C0.580645 49.2138 2.09032 52.6959 4.4129 55.7138C6.73548 58.7317 9.75484 60.937 13.471 62.562C17.1871 64.187 21.2516 64.9995 25.7806 64.9995C30.1935 64.9995 34.2581 64.3031 37.9742 62.7942C41.6903 61.2852 44.5935 59.0799 46.9161 56.1781C48.8903 53.6245 49.9355 50.6067 50.1677 47.1245H39.4839C39.2516 49.4459 38.0903 51.4192 35.7677 52.9281Z" fill="white"></path>
      <path d="M240.852 42.9454H230.052V26.9276V16.7133V4.06151H240.852V16.7133H255.02V26.9276H240.852V42.9454ZM47.6132 36.3294C45.8712 34.0079 43.7809 32.3829 41.4583 31.2222C39.1357 30.1776 36.4648 29.249 33.5615 28.4365L22.4132 25.1865C19.6261 24.4901 17.4196 23.5615 15.6777 22.5169C14.0519 21.4722 13.1228 19.8472 13.1228 17.6419C13.1228 16.0169 13.7035 14.624 14.7486 13.3472C15.7938 12.0704 17.3035 11.1419 19.1615 10.4454C21.0196 9.74901 22.9938 9.51686 24.968 9.51686C28.3357 9.63293 31.239 10.5615 33.7938 12.4186C36.3486 14.2758 37.9744 16.8294 38.6712 19.9633L49.7035 18.1061C48.7745 14.2758 47.1486 10.9097 44.9422 8.24008C42.7357 5.57043 39.9486 3.48115 36.4648 2.08829C33.097 0.695434 29.2648 -0.117065 25.0841 -0.117065C20.9035 -0.000994012 17.0712 0.579363 13.5874 2.08829C10.1035 3.48115 7.43251 5.57043 5.45832 8.35615C3.48413 11.0258 2.43896 14.3919 2.43896 18.2222C2.43896 22.9811 3.71638 26.5794 6.38735 28.9008C9.05832 31.2222 12.3099 32.9633 16.2583 34.0079L32.5164 38.8829C34.9551 39.5794 36.697 40.624 37.8583 41.7847C38.2067 42.1329 38.439 42.4811 38.6712 42.9454H50.0519C49.8196 40.2758 48.8906 38.0704 47.6132 36.3294Z" fill="white"></path>
    </g>
    <defs>
      <clipPath id="clip0_19_52">
        <rect width="324" height="65" fill="white"></rect>
      </clipPath>
    </defs>
  </symbol>
  <symbol xmlns="http://www.w3.org/2000/svg" viewBox="0 0 24 23" id="phone">
    <path d="M23.2798 19.1955L20.7899 21.5664C19.6512 22.6507 17.8404 22.7518 16.5764 21.8016L16.0461 21.403C10.784 17.4475 6.02723 12.9181 1.87323 7.90746L1.45459 7.4025C0.456762 6.19891 0.562942 4.47468 1.70167 3.39037L4.19155 1.01949C5.27643 -0.0135413 6.81177 1.48491 8.36488 2.9563C9.90739 4.41763 11.475 5.84506 10.4454 6.82548L8.92429 8.27387C8.30149 8.8669 8.22024 9.80174 8.73217 10.4842C10.0034 12.1788 11.5604 13.6614 13.34 14.8719C14.0568 15.3593 15.0385 15.2819 15.6613 14.6889L17.1824 13.2405C18.1256 12.3425 19.6704 13.8385 21.243 15.2947C22.8012 16.7377 24.3967 18.1319 23.2798 19.1955Z"></path>
  </symbol>
  <symbol  xmlns="http://www.w3.org/2000/svg" viewBox="0 0 23 21" id="telegram-ico">
    <path d="M8.94624 13.5634L17.4092 19.8159C18.3751 20.3488 19.0719 20.0728 19.3125 18.9194L22.7574 2.68587C23.11 1.27187 22.2184 0.630324 21.2944 1.0498L1.06616 8.84972C-0.314591 9.4036 -0.306366 10.174 0.814509 10.5171L6.00554 12.1375L18.0233 4.55557C18.5907 4.21152 19.1115 4.39632 18.6841 4.77572" ></path>
  </symbol>
  <symbol xmlns="http://www.w3.org/2000/svg" viewBox="0 0 17 21" id="hh-ico">
    <path d="M12.0088 0.875V8.39453H4.41365V0.875H0.336243V20.125H4.41365V12.1406H12.0088V20.125H16.0862V0.875H12.0088Z"></path>
  </symbol>
  <symbol xmlns="http://www.w3.org/2000/svg" viewBox="0 0 24 19" id="twitter-ico">
    <path d="M7.74065 18.7428C16.3256 18.7428 21.0212 11.6302 21.0212 5.46222C21.0212 5.2602 21.0212 5.05909 21.0075 4.85889C21.921 4.19815 22.7096 3.38003 23.3362 2.44284C22.4844 2.82031 21.5807 3.06785 20.6554 3.17721C21.6298 2.59388 22.359 1.67641 22.7074 0.59554C21.7912 1.13922 20.7888 1.52239 19.7436 1.72849C19.0398 0.980183 18.1091 0.484673 17.0953 0.318639C16.0816 0.152605 15.0414 0.325303 14.1357 0.81001C13.23 1.29472 12.5093 2.06441 12.0852 2.99998C11.661 3.93555 11.557 4.98484 11.7892 5.98547C9.93353 5.89244 8.11812 5.4102 6.46087 4.57005C4.80362 3.7299 3.34157 2.55062 2.16964 1.10878C1.57276 2.13632 1.38995 3.35272 1.65842 4.51031C1.9269 5.6679 2.62648 6.67964 3.61472 7.33955C2.87192 7.31754 2.14532 7.11716 1.49624 6.75533C1.49624 6.77444 1.49624 6.79446 1.49624 6.81448C1.49653 7.89212 1.86957 8.93648 2.55209 9.77043C3.23461 10.6044 4.18458 11.1766 5.24089 11.39C4.55372 11.5774 3.83273 11.6048 3.13333 11.47C3.43159 12.3975 4.01226 13.2085 4.79414 13.7897C5.57602 14.3709 6.51999 14.6932 7.49405 14.7115C5.84124 16.0104 3.7995 16.7156 1.69735 16.7135C1.32598 16.7128 0.954971 16.6903 0.586235 16.6461C2.72076 18.0159 5.20441 18.7425 7.74065 18.7391" ></path>
  </symbol>
  <symbol xmlns="http://www.w3.org/2000/svg" viewBox="0 0 24 15" id="vk-ico">
    <path fill-rule="evenodd" clip-rule="evenodd" d="M23.0642 1.65938C23.2223 1.13202 23.0642 0.744507 22.3115 0.744507H19.8227C19.1898 0.744507 18.8981 1.07926 18.7399 1.44839C18.7399 1.44839 17.4742 4.53343 15.6812 6.53736C15.1011 7.11744 14.8374 7.302 14.521 7.302C14.3628 7.302 14.1255 7.11744 14.1255 6.59012V1.65938C14.1255 1.02654 13.9502 0.744507 13.4228 0.744507H9.51169C9.11622 0.744507 8.87838 1.03822 8.87838 1.31658C8.87838 1.9165 9.77483 2.05485 9.86724 3.74241V7.40752C9.86724 8.21108 9.72212 8.35677 9.4057 8.35677C8.56197 8.35677 6.50958 5.25795 5.29232 1.71209C5.05377 1.0229 4.8145 0.744507 4.17842 0.744507H1.68956C0.978457 0.744507 0.836227 1.07926 0.836227 1.44839C0.836227 2.1076 1.68001 5.37721 4.765 9.70149C6.82165 12.6546 9.71933 14.2555 12.3561 14.2555C13.9381 14.2555 14.1339 13.8999 14.1339 13.2875V11.0555C14.1339 10.3444 14.2837 10.2025 14.7847 10.2025C15.1538 10.2025 15.7867 10.387 17.2633 11.8109C18.9508 13.4984 19.229 14.2555 20.1782 14.2555H22.6671C23.3782 14.2555 23.7337 13.8999 23.5286 13.1982C23.3042 12.4989 22.4985 11.4843 21.4294 10.2816C20.8493 9.59602 19.9792 8.85776 19.7155 8.48854C19.3463 8.01398 19.4518 7.80299 19.7155 7.38114C19.7155 7.38114 22.7478 3.10957 23.0642 1.65938Z"></path>
  </symbol>
  <symbol xmlns="http://www.w3.org/2000/svg" viewBox="0 0 28 22" id="letter">
    <path d="M23.3333 0H4.66667C2.1 0 0 1.98 0 4.4V17.6C0 20.02 2.1 22 4.66667 22H23.3333C25.9 22 28 20.02 28 17.6V4.4C28 1.98 25.9 0 23.3333 0ZM4.66667 2.2H23.3333C23.5667 2.2 23.6833 2.2 23.9167 2.31L14.8167 10.89C14.35 11.33 13.65 11.33 13.1833 10.89L4.08333 2.31C4.31667 2.2 4.43333 2.2 4.66667 2.2ZM2.33333 17.6V4.4C2.33333 4.18 2.33333 4.07 2.45 3.85L10.0333 11L9.33333 11.66L2.45 18.15C2.33333 17.93 2.33333 17.82 2.33333 17.6ZM23.3333 19.8H4.66667C4.43333 19.8 4.31667 19.8 4.08333 19.69L11.0833 13.09L11.6667 12.54C12.25 13.09 13.0667 13.42 14 13.42C14.9333 13.42 15.6333 13.09 16.3333 12.54L23.9167 19.69C23.6833 19.8 23.5667 19.8 23.3333 19.8ZM25.6667 17.6C25.6667 17.82 25.6667 17.93 25.55 18.15L17.9667 11L25.55 3.85C25.6667 4.07 25.6667 4.18 25.6667 4.4V17.6Z"></path>
  </symbol>
  <symbol fill="none" xmlns="http://www.w3.org/2000/svg" viewBox="0 0 135 32" id="logo">
    <path d="M106.031 24.8593L106.273 28.8204C105.645 29.1585 103.954 29.3035 103.133 29.3035C98.8819 29.3035 95.8386 26.6466 95.742 21.961H100.234C100.428 23.9415 101.973 25.1492 103.809 25.1492C104.244 25.1009 105.645 24.9559 106.031 24.8593ZM45.0693 29.0136H49.5617V4.03955H45.0693V29.0136ZM84.5351 13.2176C86.6605 13.2176 88.4478 14.2804 89.269 15.8262L93.0369 13.7007C91.5877 10.8024 88.3512 8.91843 84.5351 8.91843C78.6901 8.91843 74.2459 13.3626 74.2459 19.2076C74.2459 25.0526 78.7384 29.4001 84.5834 29.4001C88.2063 29.4001 91.2979 27.7577 93.0369 25.1492L89.269 22.8305C88.3029 24.2314 86.5639 25.1009 84.5834 25.1009C81.202 25.1009 78.6901 22.5407 78.6901 19.1593C78.6901 15.7779 81.1537 13.2176 84.5351 13.2176ZM42.5091 18.2898C42.5091 13.0244 38.3548 8.91843 33.0411 8.91843C27.3411 8.91843 22.8969 13.3626 22.8969 19.0626C22.8969 24.9559 27.4377 29.4001 33.1377 29.4001C37.1954 29.4001 40.5285 27.806 41.9777 25.1492L38.4031 22.8305C37.4853 24.3763 35.4564 25.3424 33.2344 25.3424C30.0462 25.3424 27.8724 23.4102 27.3894 20.222H42.3641C42.4608 19.594 42.5091 18.8211 42.5091 18.2898ZM27.5343 16.7923C28.2106 14.2321 30.0945 12.5897 32.7996 12.5897C35.5047 12.5897 37.5336 14.3287 37.7751 16.7923H27.5343ZM71.734 18.2898C71.734 13.0244 67.5798 8.91843 62.2661 8.91843C56.566 8.91843 52.1219 13.3626 52.1219 19.0626C52.1219 24.9559 56.6627 29.4001 62.3627 29.4001C66.4204 29.4001 69.7535 27.806 71.2027 25.1492L67.6281 22.8305C66.7103 24.3763 64.6814 25.3424 62.4593 25.3424C59.2712 25.3424 57.0974 23.4102 56.6143 20.222H71.5891C71.6857 19.594 71.734 18.8211 71.734 18.2898ZM56.711 16.7923C57.3872 14.2321 59.2712 12.5897 61.9763 12.5897C64.6814 12.5897 66.7103 14.3287 66.9518 16.7923H56.711ZM127.624 18.2898C127.624 13.0244 123.47 8.91843 118.156 8.91843C112.456 8.91843 108.012 13.3626 108.012 19.0626C108.012 24.9559 112.552 29.4001 118.252 29.4001C122.31 29.4001 125.643 27.806 127.092 25.1492L123.518 22.8305C122.6 24.3763 120.571 25.3424 118.349 25.3424C115.161 25.3424 112.987 23.4102 112.504 20.222H127.479C127.576 19.594 127.624 18.8211 127.624 18.2898ZM112.649 16.7923C113.325 14.2321 115.209 12.5897 117.914 12.5897C120.619 12.5897 122.648 14.3287 122.89 16.7923H112.649ZM130.184 29.0136H134.676V4.03955H130.184V29.0136ZM14.8782 24.3763C13.8154 25.0526 12.5112 25.3907 11.0137 25.3907C9.41962 25.3907 8.01876 24.9559 6.81111 24.0864C5.60347 23.2169 4.83058 22.0576 4.44413 20.5118L0 21.1881C0.241529 22.8305 0.869504 24.2797 1.83562 25.5356C2.80173 26.7916 4.05768 27.7094 5.60347 28.3857C7.14925 29.0619 8.83995 29.4001 10.7239 29.4001C12.5595 29.4001 14.2502 29.1102 15.796 28.4823C17.3418 27.8543 18.5494 26.9365 19.5155 25.7288C20.3367 24.6661 20.7715 23.4102 20.8681 21.961H16.424C16.3273 22.9271 15.8443 23.7483 14.8782 24.3763Z" fill="#092433"></path>
    <path d="M100.185 20.2215H95.693V13.5553V9.30439V4.03906H100.185V9.30439H106.079V13.5553H100.185V20.2215ZM19.8046 17.4681C19.08 16.5019 18.2105 15.8257 17.2444 15.3426C16.2783 14.9079 15.1673 14.5214 13.9596 14.1833L9.32226 12.8307C8.16292 12.5409 7.24512 12.1544 6.52053 11.7197C5.84425 11.2849 5.4578 10.6086 5.4578 9.69083C5.4578 9.01455 5.69933 8.43488 6.13408 7.90352C6.56883 7.37215 7.19681 6.98571 7.9697 6.69587C8.74259 6.40604 9.56379 6.30943 10.385 6.30943C11.7859 6.35773 12.9935 6.74418 14.0562 7.51707C15.119 8.28996 15.7952 9.35269 16.0851 10.6569L20.6741 9.88406C20.2877 8.28996 19.6114 6.8891 18.6936 5.77806C17.7758 4.66703 16.6164 3.79753 15.1673 3.21786C13.7664 2.63819 12.1723 2.30005 10.4333 2.30005C8.69429 2.34835 7.1002 2.58988 5.65103 3.21786C4.20185 3.79753 3.09082 4.66703 2.26962 5.82637C1.44842 6.9374 1.01367 8.33827 1.01367 9.93236C1.01367 11.9129 1.54504 13.4104 2.65607 14.3765C3.7671 15.3426 5.11966 16.0672 6.76206 16.5019L13.5249 18.5308C14.5393 18.8206 15.2639 19.2554 15.7469 19.7384C15.8918 19.8833 15.9885 20.0283 16.0851 20.2215H20.819C20.7224 19.1105 20.336 18.1926 19.8046 17.4681Z" fill="#EB4247"></path>
  </symbol>
</svg>
<svg class="icon">
  <use xlink:href="#logo-white"></use>
</svg><svg class="icon">
  <use xlink:href="#phone"></use>
</svg><svg class="icon">
  <use xlink:href="#telegram-ico"></use>
</svg><svg class="icon">
  <use xlink:href="#hh-ico"></use>
</svg><svg class="icon">
  <use xlink:href="#twitter-ico"></use>
</svg><svg class="icon">
  <use xlink:href="#vk-ico"></use>
</svg><svg class="icon">
  <use xlink:href="#letter"></use>
</svg><svg class="icon">
  <use xlink:href="#logo"></use>
</svg>